<svg xmlns="http://www.w3.org/2000/svg" viewBox="0 0 312.85 313.09"><defs><style>.cls-1{fill:#fff;}</style></defs><g id="Camada_2" data-name="Camada 2"><g id="Camada_1-2" data-name="Camada 1"><path class="cls-1" d="M312.85,156.33c-.77,88.8-71.82,155.94-154.93,156.75C70.86,313.94,2,243.37,0,160.29-1.95,73.57,67.36,1.57,153.18,0,240.32-1.54,312,67.85,312.85,156.33ZM164,77.94c-27.57.59-47.7.67-67.8,1.55-16.56.73-33.08,2.31-49.6,3.73C38.75,83.89,35,87.6,33.84,95.54a121.86,121.86,0,0,0-1.4,15.59c-.36,24.57-.76,49.13-.63,73.7C31.87,195.9,33,207,33.9,218c.51,6.4,4.27,10.18,10.5,11.46a47.5,47.5,0,0,0,6.57,1c19.55,1.2,39.09,2.88,58.66,3.38,51,1.31,101.91,1.47,152.74-3.39,12.59-1.21,16.36-5.13,17.09-17.81.33-5.74.78-11.47,1-17.22,1.05-32.66,1.28-65.32-1.11-97.94-.64-8.72-4.8-13.36-12.77-14.32s-15.83-2-23.77-2.33C214.05,79.68,185.33,78.73,164,77.94Z"/><path class="cls-1" d="M156.6,93.29a63.15,63.15,0,0,1,63.29,63.57c-.1,34.8-28.55,62.92-63.64,62.91a63.25,63.25,0,0,1-63.46-63.46C92.84,121.24,121.19,93.24,156.6,93.29Z"/></g></g></svg>